<?xml version="1.0" standalone="no"?>
<!DOCTYPE svg PUBLIC "-//W3C//DTD SVG 20010904//EN"
 "http://www.w3.org/TR/2001/REC-SVG-20010904/DTD/svg10.dtd">
<svg version="1.0" xmlns="http://www.w3.org/2000/svg"
 width="829.000000pt" height="828.000000pt" viewBox="0 0 829.000000 828.000000"
 preserveAspectRatio="xMidYMid meet">

<g transform="translate(0.000000,828.000000) scale(0.100000,-0.100000)"
fill="#000000" stroke="none">
<path d="M4960 6395 c-798 -105 -1456 -309 -1851 -573 -409 -274 -643 -652
-600 -966 35 -251 192 -457 516 -679 644 -441 1883 -678 3275 -627 190 7 390
15 445 19 l100 6 -90 8 c-1041 93 -1842 326 -2357 687 -127 89 -348 310 -422
423 -248 376 -199 735 149 1082 212 212 546 422 920 579 162 68 155 65 120 64
-16 0 -109 -10 -205 -23z"/>
<path d="M4960 5874 c-351 -80 -668 -235 -819 -401 -114 -123 -169 -274 -156
-423 9 -107 59 -249 119 -340 184 -276 599 -545 1081 -700 107 -34 317 -91
321 -87 2 1 -47 25 -109 51 -655 286 -1007 639 -1007 1011 0 296 250 635 666
902 25 15 26 16 -96 -13z"/>
<path d="M2480 5346 c-58 -22 -182 -86 -240 -126 -137 -93 -241 -223 -280
-348 -58 -186 7 -391 180 -562 237 -236 687 -404 1283 -480 87 -11 168 -20
180 -19 12 0 -36 18 -108 39 -189 56 -264 84 -414 156 -168 80 -277 153 -386
256 -247 234 -334 532 -251 860 13 51 38 124 55 162 17 38 31 70 31 72 0 6
-13 3 -50 -10z"/>
<path d="M2383 3007 c-67 -155 -125 -290 -129 -299 -6 -17 9 -18 219 -18 170
0 226 3 230 13 3 6 60 136 127 287 67 151 124 281 127 288 4 9 -44 12 -223 12
l-229 0 -122 -283z"/>
<path d="M3101 3268 c-5 -13 -48 -113 -96 -223 -48 -110 -102 -235 -121 -277
l-33 -78 188 0 188 0 78 165 c43 91 82 162 85 158 4 -5 31 -79 60 -165 l53
-158 227 0 228 0 125 283 c69 155 129 290 132 300 7 16 -6 17 -182 17 l-190 0
-78 -172 c-43 -95 -81 -177 -85 -181 -4 -4 -28 66 -55 155 -27 90 -52 171 -57
181 -8 15 -29 17 -234 17 -224 0 -225 0 -233 -22z"/>
<path d="M4446 3282 c-4 -7 -240 -547 -253 -579 -4 -10 96 -13 478 -13 l484 0
27 63 26 62 -284 3 c-171 1 -284 6 -284 12 0 5 8 25 17 45 l17 35 288 0 288 0
19 38 c10 20 22 47 25 60 l7 22 -285 0 c-157 0 -286 2 -286 5 0 2 8 20 17 40
l17 35 288 0 289 0 39 86 c22 47 40 88 40 90 0 8 -969 4 -974 -4z"/>
<path d="M5578 2993 l-287 -298 212 -3 211 -2 46 45 46 45 177 0 177 0 0 -45
0 -45 200 0 200 0 0 300 0 300 -348 0 -348 0 -286 -297z m582 35 l0 -108 -121
0 -120 0 113 119 c74 79 115 116 120 108 4 -7 8 -60 8 -119z"/>
</g>
</svg>
